<svg id="Capa_1" data-name="Capa 1" xmlns="http://www.w3.org/2000/svg" viewBox="0 0 113.25 101.32"><defs><style>.cls-1{fill:#e4e0e0;}.cls-2{fill:#d2d0d0;}.cls-3{fill:#333;}.cls-4{fill:#666363;}.cls-5{fill:#060606;}.cls-6{fill:#477d9d;}.cls-7{fill:#f3f4f4;}.cls-8{fill:#efc391;}.cls-9{fill:#cfd1d7;}.cls-10{fill:#bebfc3;}.cls-11{fill:#53927c;}.cls-12{fill:#487f6b;}.cls-13{fill:#182b34;}</style></defs><title>decoration</title><path class="cls-1" d="M95.36,16.06H60.15a3.14,3.14,0,0,0-3.08,3.21V88.52l39.3-72.29a3.1,3.1,0,0,0-1-.17"/><path class="cls-2" d="M96.37,16.23,57.07,88.52v.64a3.11,3.11,0,0,0,3.08,3.18H95.36a3.14,3.14,0,0,0,3.11-3.18V19.27a3.22,3.22,0,0,0-2.1-3"/><path class="cls-3" d="M81.05,88.81a1.37,1.37,0,0,1-1.36,1.41H75.44a1.36,1.36,0,0,1-1.34-1.41V84.93a1.36,1.36,0,0,1,1.34-1.4h4.25a1.37,1.37,0,0,1,1.36,1.4ZM80.6,85a.94.94,0,0,0-.93-.94H75.41a.93.93,0,0,0-.91.94v3.89a1,1,0,0,0,.91,1h4.26a1,1,0,0,0,.93-1Z"/><path class="cls-4" d="M87.55,20a.8.8,0,0,1-.79.82H69.32A.82.82,0,0,1,68.5,20h0a.83.83,0,0,1,.82-.83H86.76a.81.81,0,0,1,.79.83Z"/><path class="cls-5" d="M72.41,20a.43.43,0,1,1-.85,0,.43.43,0,1,1,.85,0"/><path class="cls-5" d="M70.27,20a.43.43,0,1,1-.85,0,.43.43,0,1,1,.85,0"/><path class="cls-5" d="M74.68,20a.43.43,0,1,1-.85,0,.43.43,0,1,1,.85,0"/><path class="cls-5" d="M76.36,20a.38.38,0,1,1-.75,0,.38.38,0,1,1,.75,0"/><path class="cls-5" d="M78.32,20a.39.39,0,0,1-.38.39.4.4,0,0,1,0-.79.39.39,0,0,1,.38.4"/><path class="cls-5" d="M80.36,20a.38.38,0,1,1-.38-.4.39.39,0,0,1,.38.4"/><path class="cls-5" d="M84.27,20a.38.38,0,1,1-.75,0,.38.38,0,1,1,.75,0"/><path class="cls-5" d="M82.34,20a.38.38,0,0,1-.37.39.4.4,0,0,1,0-.79.38.38,0,0,1,.37.4"/><path class="cls-5" d="M86.17,20a.38.38,0,1,1-.75,0,.38.38,0,1,1,.75,0"/><rect class="cls-6" x="61.25" y="23.97" width="33.05" height="56.65"/><polygon class="cls-7" points="65.7 49.62 65.7 50.5 64.85 50.5 64.85 54.34 64.33 54.34 64.33 50.5 63.48 50.5 63.48 49.62 65.7 49.62"/><path class="cls-7" d="M67.64,52.28l.64,2.06h-.59l-.62-2H66.6v2h-.51V49.62h1.12c.6,0,.9.45.9,1.36,0,.68-.16,1.12-.47,1.3m-1-.77h.72c.21,0,.32-.18.32-.52s-.11-.47-.31-.49H66.6Z"/><path class="cls-7" d="M68.41,54.34l1-4.72H70l1,4.72h-.55l-.15-.72H69.11l-.15.72Zm1.3-3.46-.39,1.79h.77Z"/><polygon class="cls-7" points="71.36 54.34 71.36 49.62 71.54 49.62 73.15 52.58 73.15 49.62 73.66 49.62 73.66 54.34 73.47 54.34 71.88 51.41 71.88 54.34 71.36 54.34"/><path class="cls-7" d="M75.59,49.78a1.57,1.57,0,0,1,.37.47l-.35.63a.53.53,0,0,0-.48-.38.37.37,0,0,0-.39.27.52.52,0,0,0,.39.74,1,1,0,0,1,.6.39A1.74,1.74,0,0,1,76,53a1.65,1.65,0,0,1-.28,1,.81.81,0,0,1-.66.41.92.92,0,0,1-.6-.19,1.47,1.47,0,0,1-.41-.5l.34-.63a.72.72,0,0,0,.58.44.4.4,0,0,0,.43-.27.8.8,0,0,0,0-.53.49.49,0,0,0-.43-.33A1.1,1.1,0,0,1,74.4,52a1.46,1.46,0,0,1-.26-1,1.63,1.63,0,0,1,.29-1,.82.82,0,0,1,.6-.38.85.85,0,0,1,.56.16"/><path class="cls-7" d="M76.32,54.34l1-4.72h.52l1,4.72h-.55l-.16-.72H77l-.16.72Zm1.3-3.46-.4,1.79H78Z"/><path class="cls-7" d="M79.44,53.66a4,4,0,0,1,0-3.36,1.07,1.07,0,0,1,.91-.68,1.11,1.11,0,0,1,.94.63l-.34.69a.73.73,0,0,0-.6-.38.63.63,0,0,0-.56.4,2.12,2.12,0,0,0-.21,1,2.22,2.22,0,0,0,.21,1,.64.64,0,0,0,.56.39A.73.73,0,0,0,81,53l.34.69a1.11,1.11,0,0,1-.94.63,1.09,1.09,0,0,1-.92-.68"/><polygon class="cls-7" points="83.96 49.62 83.96 50.5 83.1 50.5 83.1 54.34 82.58 54.34 82.58 50.5 81.73 50.5 81.73 49.62 83.96 49.62"/><rect class="cls-7" x="84.34" y="49.62" width="0.51" height="4.72"/><path class="cls-7" d="M85.61,53.66a4,4,0,0,1,0-3.36,1,1,0,0,1,1.83,0,4,4,0,0,1,0,3.36,1,1,0,0,1-.92.68,1.07,1.07,0,0,1-.91-.68m.92-.2a.63.63,0,0,0,.55-.43,2.62,2.62,0,0,0,0-2.1.63.63,0,0,0-.56-.43c-.23,0-.41.14-.55.43A2.62,2.62,0,0,0,86,53a.63.63,0,0,0,.56.43"/><polygon class="cls-7" points="88.19 54.34 88.19 49.62 88.36 49.62 89.98 52.58 89.98 49.62 90.49 49.62 90.49 54.34 90.3 54.34 88.71 51.41 88.71 54.34 88.19 54.34"/><path class="cls-8" d="M99.89,76.63a4,4,0,0,0,3.47-4.33h0a3.85,3.85,0,0,0-4-3.73l-7.27.58a4,4,0,0,0-3.48,4.34h0a3.88,3.88,0,0,0,4,3.73Z"/><path class="cls-8" d="M101.15,66.27a4.33,4.33,0,0,0,3.8-4.74v0a4.23,4.23,0,0,0-4.42-4.08l-8,.64a4.33,4.33,0,0,0-3.8,4.74v0a4.23,4.23,0,0,0,4.42,4.08Z"/><path class="cls-8" d="M101,55.44a4.47,4.47,0,0,0,4.1-4.77h0a4.36,4.36,0,0,0-4.71-4.06l-8.54.69a4.48,4.48,0,0,0-4.1,4.76v0a4.36,4.36,0,0,0,4.71,4.06Z"/><path class="cls-8" d="M100.61,43.66a4.34,4.34,0,0,0,3.8-4.75h0A4.21,4.21,0,0,0,100,34.82l-8,.64a4.34,4.34,0,0,0-3.81,4.74h0a4.22,4.22,0,0,0,4.41,4.09Z"/><path class="cls-8" d="M36.15,61.42h0s3-1.16,3.88-6,7.36-8,9-10.57,6.42-5.24,6.42-5.24l19.35-6.38s3,4.51-.51,7.67-5.5,2.11-5.5,2.11l-7.58,4.79s3.5,12.88-4.18,21.4V88.52l-20.92,3Z"/><path class="cls-9" d="M36.15,60.84c0-2-.09-3.66-1.8-3.6l-9.11-.06a3.82,3.82,0,0,0-4.06,3.56l-.09,16.59,15,.1Z"/><path class="cls-10" d="M36.08,94.73l0-17.37-15-.1L21,94.62a3.77,3.77,0,0,0,4,3.54H34.2c1.86,0,1.87-1.46,1.88-3.43"/><path class="cls-11" d="M26.34,58c0-2,.74-4.36-1.5-4.37L1.27,53.56,1.22,77.3l25,.06Z"/><path class="cls-12" d="M26.13,96.73l.1-19.44h-25v23.19h23c2.25,0,1.89-1.79,1.9-3.76"/><path class="cls-13" d="M20.94,91.86a3.5,3.5,0,0,0,0,6.9,3.5,3.5,0,0,0,0-6.9"/><path class="cls-13" d="M14,91.86a3.5,3.5,0,0,0,0,6.9,3.5,3.5,0,0,0,0-6.9"/><path class="cls-13" d="M7.29,91.86a3.5,3.5,0,0,0,0,6.9,3.5,3.5,0,0,0,0-6.9"/><path class="cls-1" d="M96.83,11.47h0L97.34,9h0c4.67.52,7.59,5.06,6.51,10.12l-2.28-.25c.78-3.7-1.35-7-4.76-7.39"/><path class="cls-1" d="M98,7.36l-.28,0,.53-2.48.28,0c6.77.75,11,7.33,9.44,14.68l-2.28-.25c1.27-6-2.18-11.34-7.69-11.95"/><path class="cls-1" d="M98.78,3.33l-.23,0L99.08.83l.23,0c8.82,1,14.34,9.55,12.29,19.12l-2.28-.26c1.75-8.2-3-15.55-10.54-16.38"/></svg>