<svg id="Capa_1" data-name="Capa 1" xmlns="http://www.w3.org/2000/svg" viewBox="0 0 100 100"><defs><style>.cls-1{fill:#fff;}.cls-2{fill:#232f3e;}</style></defs><title>firt</title><path class="cls-1" d="M13.87,60.12l10.52-28a12.57,12.57,0,1,1,23.54,8.84L37.4,69a4.54,4.54,0,0,1-5.86,2.66L16.53,66a4.54,4.54,0,0,1-2.66-5.86"/><path class="cls-2" d="M53.66,90.9C52.77,89,51.82,87.09,51,85.13a2.63,2.63,0,0,1,.12-1.74q4.48-12.09,9-24.15l1.27-3.36a24,24,0,0,1-2.9-1.59,6.59,6.59,0,0,1-2.39-7.57c.67-2,1.48-4,2.23-6,.1-.27.2-.54.31-.82L56.11,38a16.4,16.4,0,0,1-2.63,2.26,3.44,3.44,0,0,0-2,3,5.86,5.86,0,0,1-.54,1.66Q46.48,56.71,42,68.52a6.64,6.64,0,0,1-6,4.74,8.43,8.43,0,0,1-3.33-.49c-4.08-1.45-8.12-3-12.15-4.54a6.9,6.9,0,0,1-4.2-9.36c2.95-7.87,5.88-15.75,8.88-23.61A13.46,13.46,0,0,1,37,26.08,1.31,1.31,0,0,0,38,25.41a11,11,0,0,1,12.6-4.49A4.24,4.24,0,0,0,51,21c.55-1.21,1-2.42,1.64-3.56A16.42,16.42,0,0,1,83.37,24.6a15.39,15.39,0,0,1-1.54,7.95.9.9,0,0,0,.24,1.22C86,37.62,87,42.18,85.15,47.32c-1,2.83-2.09,5.62-3.15,8.43A6.91,6.91,0,0,1,72.72,60l-1-.36c-.5,1.35-1.06,2.61-1.45,3.93a3.34,3.34,0,0,1-2.37,2.52c-.35.1-.69.25-1.05.39.3,1.4,1.44,2.44.85,4s-2.1,1.72-3.24,2.48c.28,1.3,1.42,2.34.82,4S63.2,78.63,62,79.46a15.18,15.18,0,0,1,.89,1.92A2.79,2.79,0,0,1,63,83c-.5,1.56-1.09,3.1-1.73,4.61a2.32,2.32,0,0,1-1,1.12c-1.86.9-3.76,1.7-5.64,2.53l-.9-.33M79.35,31.69A36.66,36.66,0,0,0,80.45,28,13.7,13.7,0,0,0,54,21.28a1.55,1.55,0,0,0,.52,1.95A10.57,10.57,0,0,1,57.9,33.72c-.38,2-.45,2,1.2,3.08.18.12.36.21.56.33a2.55,2.55,0,0,0,.18-.28,12.33,12.33,0,0,1,16-6.49l3.54,1.33M36.46,28.92c-.18,0-.33,0-.48.07a10.89,10.89,0,0,0-8.16,7.18C25.94,41.1,24.11,46.05,22.25,51c-1.13,3-2.27,6-3.38,9a4,4,0,0,0,2.27,5.45q6.48,2.54,13,4.89a3.94,3.94,0,0,0,5.16-2.46Q44,55.62,48.56,43.31a10.29,10.29,0,0,0-.61-8.7,10.77,10.77,0,0,0-8.6-5.81c-.14.88-.26,1.7-.39,2.54l.71.2a5.89,5.89,0,0,1,4.61,4.53,7.88,7.88,0,0,1-.74,5.09c-.53,1.3-1.09,1.57-2.41,1.08-1.89-.69-3.77-1.41-5.66-2.12-.92-.34-1.84-.67-2.75-1s-1.15-.9-.93-1.62c.69-2.3,1.57-4.47,4-5.51a.75.75,0,0,0,.44-.47c.11-.83.15-1.66.22-2.55m41.31,5.15c-1.45-.55-2.68-1.12-4-1.47a9.52,9.52,0,0,0-11.72,6q-1.59,4.2-3.16,8.42a4.16,4.16,0,0,0,2.63,5.81q6.06,2.3,12.14,4.56a4.17,4.17,0,0,0,5.76-2.62c1.06-2.78,2.11-5.56,3.13-8.35a10.12,10.12,0,0,0,.68-4.36A9.48,9.48,0,0,0,80,35.6l-1.58,1.78.51.53a4.07,4.07,0,0,1,.4,5,4,4,0,0,1-4.73,1.63c-1.85-.65-3.69-1.32-5.51-2.08a4.07,4.07,0,0,1,2.68-7.66c1.12.31,2.2.78,3.31,1.14a1,1,0,0,0,.77,0c.62-.53,1.18-1.13,1.88-1.82M64.13,56.77A1.52,1.52,0,0,0,64,57q-5.09,13.52-10.15,27a1,1,0,0,0,0,.67c.43,1.08.9,2.14,1.41,3.35,1.19-.57,2.24-1.07,3.28-1.59a.8.8,0,0,0,.37-.38c.89-2.13,2.07-4.25.25-6.49,0,0,0-.05,0-.07a1.43,1.43,0,0,1,.81-2.2c.74-.35,1.48-.72,2.24-1,.58-.23.63-.51.36-1-.38-.73-.7-1.49-1-2.24a1.41,1.41,0,0,1,.81-2.14c.79-.38,1.58-.75,2.39-1.09.4-.17.51-.37.3-.79-.36-.73-.69-1.49-1-2.24-.54-1.21-.32-1.81.86-2.36l2.17-1c.19-.08.44-.19.5-.35.58-1.47,1.13-3,1.69-4.45l-5-1.89m-10-20.83-.21-.29a16.38,16.38,0,0,1-3.39-11.31.91.91,0,0,0-.52-.7,15.62,15.62,0,0,0-3.51-.44,7.67,7.67,0,0,0-5.67,3c6.26,1.61,9.91,5.53,11.06,12l2.24-2.27M72.93,41c.91.35,1.71.68,2.54.95a1.29,1.29,0,0,0,1.67-.66,1.16,1.16,0,0,0-.24-1.52,1.31,1.31,0,0,0-1.08-.31c-1,.42-1.86,1-2.89,1.54M53.27,25.8a13.46,13.46,0,0,0,2,7,8.37,8.37,0,0,0-2-7M38.58,38.3l-2-3.72a3.63,3.63,0,0,0-1.72,2.33l3.69,1.39m30.76.52.23.23,2.9-.94c-.82-.44-1.58-1.09-2.41-.45a4.16,4.16,0,0,0-.72,1.16M41.43,37.29l.2-.11a2.7,2.7,0,0,0-2.1-2.61c.69,1,1.3,1.85,1.9,2.72"/><polygon class="cls-2" points="33.49 48.91 31.09 48 32.29 44.81 38.25 47.05 31.48 65.08 27.92 63.74 33.49 48.91"/></svg>