<svg id="Capa_1" data-name="Capa 1" xmlns="http://www.w3.org/2000/svg" viewBox="0 0 100 100"><defs><style>.cls-1{fill:none;stroke:#232f3e;stroke-miterlimit:10;stroke-width:3px;}.cls-2{fill:#fff;}</style></defs><title>man</title><path class="cls-1" d="M53,7.21a11.34,11.34,0,0,1,4.74,2.17,8.41,8.41,0,0,1-1.39,13.77c-5.27,2.92-12,.07-13.25-5.69A8.64,8.64,0,0,1,50,7.38a3.5,3.5,0,0,0,.55-.17Z"/><path class="cls-2" d="M39.24,59.46H32.55V35.52A9,9,0,0,1,42,26.13h12.3a9,9,0,0,1,9.41,9.41q0,11.48,0,23v.94H57V92.79H39.24Z"/><path class="cls-1" d="M42.93,60.7h-6.7v-.87q0-11.1,0-22.19c0-5.34,3.85-9,9.44-9H58c5.56,0,9.44,3.72,9.45,9v23H60.79V92.79H42.93Z"/></svg>