<svg id="Capa_1" data-name="Capa 1" xmlns="http://www.w3.org/2000/svg" viewBox="0 0 100 100"><defs><style>.cls-1{fill:#fff;}.cls-2{fill:#232f3e;}</style></defs><title>moto</title><path class="cls-1" d="M14.39,67.13a10.65,10.65,0,1,0,21.08,0Z"/><path class="cls-1" d="M88.51,68.92A10.65,10.65,0,1,1,77.86,58.27,10.65,10.65,0,0,1,88.51,68.92"/><path class="cls-2" d="M10,64.35c.27-1.12.47-2.26.82-3.35a32.12,32.12,0,0,1,6.67-11,7.63,7.63,0,0,0,1.86-3.09c.8-3.07,3.45-4.88,6.8-4.9q9.21,0,18.41,0a4.8,4.8,0,0,1,4.6,6.74,5.74,5.74,0,0,1-1.08,1.48,48.4,48.4,0,0,0-3.73,4c-1.92,2.62-1.28,5.22,1.47,7A12.41,12.41,0,0,0,52.6,63a16.13,16.13,0,0,0,8.58-2.18c4-2.42,5.21-5.68,3.79-10.16A31,31,0,0,0,60.31,42c-.54-.75-1.1-1.49-1.7-2.3L57,41.46a8.18,8.18,0,0,1-.63.68,1.34,1.34,0,0,1-1.82.12,1.29,1.29,0,0,1-.09-1.87c.54-.65,1.14-1.26,1.71-1.9a17.58,17.58,0,0,0,2.6-3.57,4.39,4.39,0,0,0,.34-3.31c-.43-1.75-.77-3.52-1.16-5.32H56.71c0,.61,0,1.2,0,1.78,0,.95-.51,1.52-1.29,1.53S54.1,29,54.1,28c0-2,0-4,0-6,0-1,.54-1.59,1.32-1.57S56.68,21,56.71,22c0,.52,0,1,0,1.66h2a1.35,1.35,0,0,1,1.57,1.26c.36,1.58.7,3.16,1.09,4.92a8.34,8.34,0,0,1,4.49-2.21c1.54-.41,2.17.07,2.18,1.69,0,3.27,0,6.55,0,9.82a2.09,2.09,0,0,0,.42,1.18,41.06,41.06,0,0,1,5.38,8c.47,1,.8,2.1,1.14,3,1.82.13,3.64.1,5.39.4a15.35,15.35,0,0,1,9.22,5.39,1.29,1.29,0,0,1-.27,2c-1,.82-2,1.61-2.94,2.36a36.92,36.92,0,0,1,1.32,3.72A10.62,10.62,0,0,1,74.92,77.79a10.39,10.39,0,0,1-7.65-7,.92.92,0,0,0-1-.73q-14.31,0-28.62,0a1,1,0,0,0-1.09.76,10.62,10.62,0,0,1-20.17-.08,31.62,31.62,0,0,1-.74-3.64c-1.17,0-2.46,0-3.74,0A1.85,1.85,0,0,1,10,66.21Zm5.82.16H34.66a.71.71,0,0,0,.53-.31,50,50,0,0,0,2.1-5.44c.58-2.07-.35-3.47-2.41-4a16.5,16.5,0,0,0-10.39.48c-4.37,1.63-7,5-8.67,9.32M44.09,50.19l-.57,0q-11.07,0-22.12,0a1.44,1.44,0,0,0-1,.46c-1.31,1.56-2.66,3.09-3.83,4.75a21.62,21.62,0,0,0-3.73,8.08c-.06.33-.07.67-.11,1l.23.07c.1-.24.22-.46.3-.7A19.78,19.78,0,0,1,16.42,58c4.83-6.19,12.81-7.56,19.19-5.83,3.09.83,4.57,3,4.39,6.23a14.28,14.28,0,0,1-1.64,5.36c-.36.74-.78,1.45-1.13,2.19-.48,1-.13,1.54.94,1.54h23c.16-1.36.3-2.62.43-3.69-2,.51-4,1.19-6.08,1.52-4,.64-7.9.22-11.34-2.12s-4.85-6.41-2.16-10.32c.62-.9,1.31-1.75,2-2.7M85.39,67.5a8.06,8.06,0,0,0-16.12-.2,8.06,8.06,0,1,0,16.12.2m1.36-9.66A13.43,13.43,0,0,0,71,55.58c-5,2.67-7.3,8-7,11.87h2.62c.26-4.55,2.29-8,6.46-9.79s8-1,11.54,1.89l2.13-1.71m-55,9.33A5.63,5.63,0,0,1,30.29,71a5.22,5.22,0,0,1-3.87,1.65,5.09,5.09,0,0,1-3.22-1.14,5.6,5.6,0,0,1-2.06-4.35H18.37a8,8,0,0,0,4.06,7.15A7.55,7.55,0,0,0,31,74a7.72,7.72,0,0,0,3.48-6.86ZM68.19,54c1.33-.61,2.62-1.19,3.88-1.81a.75.75,0,0,0,.24-.67A15.52,15.52,0,0,0,71.37,49a49.91,49.91,0,0,0-7.31-9.83c-1-1.06-2-2.09-3-3.2a2.66,2.66,0,0,0,.14,2.81c.55.81,1.17,1.57,1.73,2.37,2.72,3.9,5.06,8,5.27,12.85M34.5,44.58H26a4.87,4.87,0,0,0-1.14.14,4.24,4.24,0,0,0-3.05,2.78H34.5Zm2.7,3h9.2c.46,0,.54-.27.57-.64a2.29,2.29,0,0,0-2.51-2.34c-2,0-4.06,0-6.1,0H37.2ZM23.85,67.18a2.62,2.62,0,1,0,5.2,0Zm41.6-36.66a3.61,3.61,0,0,0-3,2.59c0,.2-.06.52.06.63,1,.93,2,1.83,2.94,2.71V30.52Z"/><path class="cls-2" d="M82.6,67.45a5.27,5.27,0,1,1-5.21-5.29,5.29,5.29,0,0,1,5.21,5.29m-5.26-2.67a2.64,2.64,0,0,0-2.66,2.64,2.68,2.68,0,0,0,2.66,2.66A2.64,2.64,0,0,0,80,67.42a2.61,2.61,0,0,0-2.65-2.64"/></svg>