<svg id="Capa_1" data-name="Capa 1" xmlns="http://www.w3.org/2000/svg" viewBox="0 0 100 100"><defs><style>.cls-1{fill:#fff;}.cls-2{fill:#232f3e;}</style></defs><title>no</title><path class="cls-1" d="M68.44,51.31h7.4A7.36,7.36,0,0,0,83,43.79V33a7.36,7.36,0,0,0-7.18-7.53H68.15s5.29,20.29.29,25.85"/><path class="cls-2" d="M42.34,84.81a16.17,16.17,0,0,1-2-.59,11.29,11.29,0,0,1-5.71-5.91,15.74,15.74,0,0,1-.5-12.16,36.39,36.39,0,0,0,1.63-5.46c.47-2.53.17-4.23-3-5.37A35.83,35.83,0,0,0,29,54.26c-1.92-.44-3.88-.71-5.77-1.24-3.24-.92-5.52-2.89-6.07-6.37a7.44,7.44,0,0,1,2.3-7.16.84.84,0,0,0,.18-.68,8.26,8.26,0,0,1,2.9-7.7c.67-.6,1.18-1.09.9-2a1.12,1.12,0,0,1,0-.4,8.07,8.07,0,0,1,4.37-6.52,1.08,1.08,0,0,0,.5-.69,6.56,6.56,0,0,1,4.51-5.73,10.25,10.25,0,0,1,4.85-.44c3.05.3,6.1.68,9.14,1.05a14.51,14.51,0,0,1,7,2.47c1.75,1.28,3.44,2.65,5.16,4a3.62,3.62,0,0,0,1.31.77,33.31,33.31,0,0,0,4.66.57c2.21.09,4.44-.1,6.65,0a6.36,6.36,0,0,1,4.74,2.36,10.87,10.87,0,0,1,2.19,4.42,39.58,39.58,0,0,1,.51,14.43,8.49,8.49,0,0,1-7.59,7.81,49,49,0,0,1-5.69.29,22.23,22.23,0,0,0-2.59.16,6,6,0,0,0-3.82,1.92c-.7.81-1.5,1.55-2.16,2.4-2.16,2.77-4.37,5.52-6.38,8.4A15.3,15.3,0,0,0,48.19,77a7.42,7.42,0,0,1,0,1.94,15.3,15.3,0,0,1-.77,3.24c-.6,1.55-2,2.22-3.5,2.64ZM47,64.46a94.33,94.33,0,0,1,8.39-11,11.9,11.9,0,0,1,4.26-3.4,14.44,14.44,0,0,1,3.28-.93,3.8,3.8,0,0,0,3.49-3.42,26,26,0,0,0,.44-3.39,39.08,39.08,0,0,0-.43-9.72c-.63-3.09-2.15-4.45-5.31-4.54a7.72,7.72,0,0,1-4.88-1.95c-1.41-1.18-2.89-2.26-4.31-3.43s-3.28-1.5-5-1.84a60.64,60.64,0,0,0-10.74-1.16A10.22,10.22,0,0,0,34,20a1.6,1.6,0,0,0-1.28,1.54,3.55,3.55,0,0,0,.09,1.26c.43,1.77-.34,2.87-2.17,3A2.54,2.54,0,0,0,28,28a3.07,3.07,0,0,0,.27,2.4A2,2,0,0,1,27,33.32a4.12,4.12,0,0,0-3,3A3.79,3.79,0,0,0,24.28,39a3.9,3.9,0,0,1,.43,1.53,1.81,1.81,0,0,1-1.39,2A2.57,2.57,0,0,0,21.23,45a3.19,3.19,0,0,0,1.57,3A14.3,14.3,0,0,0,28.26,50a51,51,0,0,1,6,1.32A8.43,8.43,0,0,1,39.94,57a9.69,9.69,0,0,1-.13,5.57c-.59,2.13-1.32,4.23-1.93,6.36A10.92,10.92,0,0,0,39,77.26a7.69,7.69,0,0,0,2.66,2.89,3.76,3.76,0,0,0,.91.42c.76.22,1.2,0,1.3-.8a17.17,17.17,0,0,0,.08-2.27c0-.43,0-.85-.08-1.28A17.81,17.81,0,0,1,47,64.46M74.89,44.32a38.86,38.86,0,0,0-.28-11.19,18,18,0,0,0-1.24-3.39,2.21,2.21,0,0,0-2.09-1.33l-1.56-.07A36.56,36.56,0,0,1,70,49a4.75,4.75,0,0,0,4.94-4.67"/></svg>