<svg id="Capa_1" data-name="Capa 1" xmlns="http://www.w3.org/2000/svg" viewBox="0 0 100 100"><defs><style>.cls-1{fill:#fff;}.cls-2,.cls-4{fill:none;stroke:#232f3e;stroke-miterlimit:10;}.cls-2{stroke-width:3px;}.cls-3{fill:#232f3e;}.cls-4{stroke-width:0.75px;}</style></defs><title>renovate</title><path class="cls-1" d="M82,24.64c-6.93,0-13.85,0-20.78,0H12.47c-1.56,0-2,.44-2,1.94v43c0,1.47.49,1.93,2.05,1.93H82a2,2,0,0,0,2-1V25.65a2,2,0,0,0-2-1"/><path class="cls-2" d="M87.51,26.09c-6.93,0-13.85,0-20.78,0H18c-1.57,0-2,.47-2,2q0,22.59,0,45.17c0,1.55.49,2,2,2h69.5a2,2,0,0,0,2-1.09V27.15A2,2,0,0,0,87.51,26.09Z"/><path class="cls-3" d="M70.29,49.07h9.32c1,0,1.64.46,1.74,1.3a1.38,1.38,0,0,1-1.06,1.54,4.1,4.1,0,0,1-1,.09h-18a4.86,4.86,0,0,1-.85-.06,1.37,1.37,0,0,1-1.22-1.42,1.42,1.42,0,0,1,1.24-1.42,5.7,5.7,0,0,1,.71,0h9.11"/><path class="cls-3" d="M70.29,58.6c3.13,0,6.26,0,9.39,0,1.16,0,1.83.71,1.65,1.71a1.29,1.29,0,0,1-1.11,1.13,4.67,4.67,0,0,1-1,.07H61.37a7,7,0,0,1-.92-.06,1.37,1.37,0,0,1-1.22-1.42,1.4,1.4,0,0,1,1.17-1.4,4.09,4.09,0,0,1,.78,0h9.11"/><path class="cls-3" d="M66.92,39.66c2.08,0,4.17,0,6.25,0a1.44,1.44,0,0,1,1.53,1.2,1.36,1.36,0,0,1-.78,1.52,2.38,2.38,0,0,1-1,.18q-6,0-12,0c-1,0-1.6-.45-1.72-1.24a1.4,1.4,0,0,1,.94-1.57,3.1,3.1,0,0,1,.91-.1h5.83"/><path class="cls-3" d="M79.22,39.66c1.55,0,2.23.49,2.23,1.46s-.68,1.46-2,1.46a5,5,0,0,1-.78,0,1.38,1.38,0,0,1-1.23-1.41,1.41,1.41,0,0,1,1.23-1.43,3.47,3.47,0,0,1,.57,0"/><path class="cls-3" d="M29,43.45a5.79,5.79,0,1,1,5.77,5.79A5.78,5.78,0,0,1,29,43.45m5.76,4.39a4.38,4.38,0,1,0-4.35-4.41,4.37,4.37,0,0,0,4.35,4.41"/><path class="cls-4" d="M29,43.45a5.79,5.79,0,1,1,5.77,5.79A5.78,5.78,0,0,1,29,43.45Zm5.76,4.39a4.38,4.38,0,1,0-4.35-4.41A4.37,4.37,0,0,0,34.73,47.84Z"/><path class="cls-3" d="M28.45,62.69a8,8,0,0,0-.84-.22,3.73,3.73,0,0,1-2.68-3.37,12.64,12.64,0,0,1,.83-5.64,4.93,4.93,0,0,1,2.18-2.64,4.56,4.56,0,0,1,2.25-.54,1.32,1.32,0,0,1,.69.25l1,.65a5.55,5.55,0,0,0,3.29.92,5.73,5.73,0,0,0,2.63-.86c.36-.22.72-.43,1.06-.68a2,2,0,0,1,1.67-.2,4.43,4.43,0,0,1,3.19,2.41,10.67,10.67,0,0,1,1.1,4,11.47,11.47,0,0,1,.06,2.27,3.84,3.84,0,0,1-3.58,3.59s-.08,0-.1,0Zm6.44-1.4h5.48l.83,0a2.43,2.43,0,0,0,2.26-2,6.38,6.38,0,0,0,0-1.69,9.46,9.46,0,0,0-1-4.05,3.08,3.08,0,0,0-2.15-1.72,1.11,1.11,0,0,0-1,.18,5.62,5.62,0,0,1-.65.43,6.72,6.72,0,0,1-6.84.41c-.58-.28-1.09-.67-1.64-1a.48.48,0,0,0-.31-.08,3.19,3.19,0,0,0-1.3.38,3.65,3.65,0,0,0-1.57,2,11.62,11.62,0,0,0-.71,4.88A2.29,2.29,0,0,0,27.69,61a3.48,3.48,0,0,0,1.53.29h5.67"/><path class="cls-4" d="M28.45,62.69a8,8,0,0,0-.84-.22,3.73,3.73,0,0,1-2.68-3.37,12.64,12.64,0,0,1,.83-5.64,4.93,4.93,0,0,1,2.18-2.64,4.56,4.56,0,0,1,2.25-.54,1.32,1.32,0,0,1,.69.25l1,.65a5.55,5.55,0,0,0,3.29.92,5.73,5.73,0,0,0,2.63-.86c.36-.22.72-.43,1.06-.68a2,2,0,0,1,1.67-.2,4.43,4.43,0,0,1,3.19,2.41,10.67,10.67,0,0,1,1.1,4,11.47,11.47,0,0,1,.06,2.27,3.84,3.84,0,0,1-3.58,3.59s-.08,0-.1,0Zm6.44-1.4h5.48l.83,0a2.43,2.43,0,0,0,2.26-2,6.38,6.38,0,0,0,0-1.69,9.46,9.46,0,0,0-1-4.05,3.08,3.08,0,0,0-2.15-1.72,1.11,1.11,0,0,0-1,.18,5.62,5.62,0,0,1-.65.43,6.72,6.72,0,0,1-6.84.41c-.58-.28-1.09-.67-1.64-1a.48.48,0,0,0-.31-.08,3.19,3.19,0,0,0-1.3.38,3.65,3.65,0,0,0-1.57,2,11.62,11.62,0,0,0-.71,4.88A2.29,2.29,0,0,0,27.69,61a3.48,3.48,0,0,0,1.53.29Z"/></svg>