<?xml version="1.0" standalone="no"?>
<!DOCTYPE svg PUBLIC "-//W3C//DTD SVG 20010904//EN"
 "http://www.w3.org/TR/2001/REC-SVG-20010904/DTD/svg10.dtd">
<svg version="1.0" xmlns="http://www.w3.org/2000/svg"
 width="587.000000pt" height="582.000000pt" viewBox="0 0 587.000000 582.000000"
 preserveAspectRatio="xMidYMid meet">
<metadata>
Created by potrace 1.15, written by Peter Selinger 2001-2017
</metadata>
<g transform="translate(0.000000,582.000000) scale(0.100000,-0.100000)"
fill="#000000" stroke="none">
<path d="M1770 4081 c-77 -24 -148 -90 -168 -160 -18 -59 -14 -140 9 -191 15
-34 138 -163 504 -530 l485 -485 -481 -480 c-529 -528 -529 -527 -529 -641 0
-121 80 -217 203 -245 45 -10 63 -9 113 6 59 16 62 20 554 511 l495 494 470
-471 c259 -259 490 -484 514 -500 109 -71 226 -58 316 34 74 77 93 160 59 263
-15 44 -65 98 -508 542 l-491 492 491 493 c546 547 532 529 521 647 -9 105
-71 182 -172 216 -55 19 -135 14 -186 -11 -19 -9 -253 -236 -521 -503 l-488
-487 -492 491 c-444 442 -498 493 -542 508 -52 17 -114 20 -156 7z m642 -718
l548 -548 543 542 c359 359 551 544 569 548 21 5 33 1 52 -19 15 -14 26 -35
26 -48 0 -17 -143 -166 -547 -570 l-548 -548 548 -548 c585 -585 575 -574 527
-622 -12 -12 -33 -20 -52 -20 -30 0 -82 50 -573 540 -297 297 -545 540 -550
540 -6 0 -253 -243 -550 -540 -578 -578 -567 -568 -615 -520 -48 48 -58 37
525 620 l545 545 -545 545 c-591 591 -574 572 -520 625 13 14 34 25 47 25 17
0 168 -145 570 -547z"/>
</g>
</svg>
