<?xml version="1.0" standalone="no"?>
<!DOCTYPE svg PUBLIC "-//W3C//DTD SVG 20010904//EN"
 "http://www.w3.org/TR/2001/REC-SVG-20010904/DTD/svg10.dtd">
<svg version="1.0" xmlns="http://www.w3.org/2000/svg"
 width="588.000000pt" height="582.000000pt" viewBox="0 0 588.000000 582.000000"
 preserveAspectRatio="xMidYMid meet">
<metadata>
Created by potrace 1.15, written by Peter Selinger 2001-2017
</metadata>
<g transform="translate(0.000000,582.000000) scale(0.100000,-0.100000)"
fill="#000000" stroke="none">
<path d="M4083 3876 c-23 -7 -56 -23 -75 -34 -18 -12 -382 -370 -808 -796
l-774 -775 -346 343 c-386 384 -392 388 -521 394 -67 4 -85 0 -138 -23 -66
-30 -116 -78 -153 -147 -19 -36 -23 -59 -23 -133 0 -80 3 -96 28 -141 20 -36
169 -191 500 -521 371 -369 483 -475 522 -494 71 -33 154 -37 230 -9 58 22 91
54 982 943 1025 1023 967 958 968 1097 0 62 -5 85 -28 132 -32 64 -90 122
-153 149 -57 26 -157 33 -211 15z m155 -193 c30 -19 62 -72 62 -104 0 -14 -13
-45 -29 -70 -17 -24 -423 -436 -903 -916 -954 -952 -913 -916 -989 -878 -39
19 -923 896 -945 937 -42 80 23 178 119 178 22 0 48 -10 73 -29 21 -16 212
-203 424 -415 212 -212 389 -386 395 -386 5 0 23 21 39 48 36 59 1599 1629
1641 1648 33 15 77 10 113 -13z"/>
</g>
</svg>
