<svg id="Capa_1" data-name="Capa 1" xmlns="http://www.w3.org/2000/svg" viewBox="0 0 60 60"><defs><style>.cls-1{fill:#232f3e;}.cls-2{fill:#fcfcfc;}</style></defs><title>car</title><path class="cls-1" d="M48.71,50.35a5.61,5.61,0,1,1-5.59-5.63,5.61,5.61,0,0,1,5.59,5.63M43.1,47.78a2.54,2.54,0,1,0,2.55,2.54,2.54,2.54,0,0,0-2.55-2.54"/><path class="cls-1" d="M30.34,50.34a5.61,5.61,0,1,1-5.58-5.62,5.61,5.61,0,0,1,5.58,5.62m-5.63,2.52a2.54,2.54,0,1,0-2.52-2.56,2.54,2.54,0,0,0,2.52,2.56"/><path class="cls-2" d="M35.56,11.52H56.63c.72,0,.73,0,.57.86C55.81,19.91,54.4,27.44,53,35c-.09.5-.23.63-.64.63q-16.76,0-33.51,0c-.43,0-.56-.18-.64-.65q-2.14-11.31-4.31-22.63c-.15-.81-.15-.81.52-.81Z"/><path class="cls-1" d="M55.35,13.13c-.18.07-.15.26-.18.39Q53,23.17,50.84,32.8c-.31,1.36-.72,1.7-2.11,1.7H19.07c-.47,0-.59.07-.46.57.34,1.35.65,2.72.94,4.09.08.36.23.47.6.47H48.73a2.49,2.49,0,0,1,.86.08,1.52,1.52,0,0,1-.05,2.91,2.46,2.46,0,0,1-.71.08h-30a1.7,1.7,0,0,1-1.94-1.55Q13.12,24.79,9.36,8.46C9.28,8.12,9.17,8,8.77,8,7.16,8,5.55,8,4,8A1.54,1.54,0,0,1,2.39,5.91a1.4,1.4,0,0,1,1.37-1c2.23,0,4.45,0,6.67,0A1.53,1.53,0,0,1,12,6.29c.34,1.41.67,2.82,1,4.24.09.41.25.52.67.52q19.89,0,39.76,0a1.85,1.85,0,0,1,2,1.18Zm-22.51,1H14.36c-.58,0-.58,0-.45.58Q15.8,22.83,17.68,31c.07.34.18.47.56.47q14.66,0,29.3,0c.36,0,.49-.09.57-.45q1.81-8.14,3.65-16.28c.14-.62.14-.62-.5-.62Z"/></svg>