<svg id="Capa_1" data-name="Capa 1" xmlns="http://www.w3.org/2000/svg" viewBox="0 0 100 100"><defs><style>.cls-1{fill:#fff;}.cls-2{fill:#232f3e;}</style></defs><title>carro</title><path class="cls-1" d="M80,53.91A10.1,10.1,0,0,1,90.06,64,10.12,10.12,0,1,1,80,53.91"/><path class="cls-1" d="M33.13,64.2a10.82,10.82,0,0,1-10.91,11,10.94,10.94,0,0,1-.06-21.87,10.91,10.91,0,0,1,11,10.91"/><rect class="cls-2" x="64.79" y="44.14" width="9.08" height="3.05"/><rect class="cls-2" x="40.83" y="44.1" width="7.54" height="3.07"/><path class="cls-2" d="M95,56.21a13.18,13.18,0,0,1-1.16,1.68c-1.44,1.51-3,2.94-4.4,4.45a2.43,2.43,0,0,0-.65,1.26,10.53,10.53,0,0,1-20.72.85c-.12-.58-.32-.75-.89-.75q-17.31,0-34.61,0c-.58,0-.79.19-.92.75a10.51,10.51,0,0,1-20.53.06c-.06-.25-.15-.49-.24-.8H6.78C5.32,63.7,5,63.41,5,62c0-2.93,0-5.85,0-8.78a8.83,8.83,0,0,1,3.21-6.93,12.37,12.37,0,0,1,3.38-2.05c2.49-1.08,5.09-1.91,7.57-3a16.82,16.82,0,0,0,3.91-2.34,61.6,61.6,0,0,1,15-9.55,57.41,57.41,0,0,1,13.31-3.74,59.27,59.27,0,0,1,12.55-.67c2.77.13,5.54.47,8.3.75,3.6.36,7.2.76,10.79,1.14,2.39.25,4.79.46,7.17.75,1.59.18,2.12,1.22,1.42,2.66S90.19,33,89.47,34.4a.82.82,0,0,0,.12,1.07c1.54,1.89,3,3.79,4.56,5.71.31.4.55.85.83,1.28ZM63.39,54.59v3.15H52.58c-.23,1-.45,1.86-.66,2.74a1.45,1.45,0,0,0,.25.07c5,0,10.09,0,15.14,0,.49,0,.62-.2.72-.64a10.52,10.52,0,0,1,19.41-3.09c.36.61.64,1.28,1,2,1-1.06,2-2.06,3-3.08a.72.72,0,0,0,.24-.44c0-1.18,0-2.36,0-3.62H86a1.56,1.56,0,0,1-1.67-1.23c-.51-2-1-3.91-1.47-5.88a1.54,1.54,0,0,1,1.66-2c1.3,0,2.61,0,3.91,0h2.79c-.23-.33-.35-.52-.48-.69-1.42-1.76-2.8-3.55-4.25-5.28a2.11,2.11,0,0,1-.3-2.69c.62-1.1,1.14-2.25,1.74-3.45-1.45-.15-2.78-.22-4.09-.43a1.07,1.07,0,0,0-1.28.66c-1.86,3.14-3.75,6.26-5.62,9.39a1.87,1.87,0,0,1-1.53,1.12l-2.95.17c-5.1.24-10.19.49-15.29.72a.73.73,0,0,0-.82.66c-.54,2.28-1.13,4.54-1.7,6.81-.41,1.64-.81,3.28-1.23,5Zm-30.09,0h1.14c5,0,9.91,0,14.87,0,.58,0,.85-.13,1-.76.65-2.78,1.37-5.55,2.06-8.32l.77-3.15h-.48L41.37,43c-6.42.32-12.85.61-19.27.93a5,5,0,0,0-1.54.23C17.7,45.2,14.84,46.29,12,47.45,9.41,48.52,7.53,52,8.12,54.59c1.86,0,3.74,0,5.62,0a1.36,1.36,0,0,0,.72-.41,10.56,10.56,0,0,1,17.05,5.1c.13.43.25.86.36,1.25H48.64c.22-.91.43-1.78.66-2.77h-16ZM26.4,40.54l.94,0,12.15-.63c4.31-.22,8.62-.42,12.92-.66,1.58-.08,1.59-.12,2-1.63.78-3.1,1.54-6.2,2.33-9.37A49,49,0,0,0,26.4,40.54M79.52,29.63c-2.66-.28-5.18-.6-7.71-.81-3.69-.3-7.39-.53-11.08-.81-.6-.05-.79.21-.91.74-.35,1.55-.77,3.08-1.15,4.62-.46,1.84-.91,3.69-1.37,5.57a2.62,2.62,0,0,0,.43,0c5.41-.28,10.82-.55,16.24-.86a1.22,1.22,0,0,0,.76-.53c1.12-1.8,2.19-3.62,3.28-5.43.48-.81,1-1.63,1.51-2.52M78.35,54.77A7.36,7.36,0,0,0,71,62.15a7.39,7.39,0,0,0,14.78,0,7.37,7.37,0,0,0-7.39-7.39M28.76,62.14a7.39,7.39,0,1,0-14.78,0,7.23,7.23,0,0,0,7.41,7.36,7.31,7.31,0,0,0,7.37-7.4M91.69,48.53V45.81h-5.3l.67,2.72Zm-80,9.28H8v2.7h2.83l.8-2.7"/></svg>