<svg id="Capa_1" data-name="Capa 1" xmlns="http://www.w3.org/2000/svg" viewBox="0 0 100 100"><defs><style>.cls-1{fill:#232f3e;}.cls-2{fill:#fff;}</style></defs><title>check</title><path class="cls-1" d="M72.5,50A22.5,22.5,0,1,1,50,27.5,22.5,22.5,0,0,1,72.5,50"/><path class="cls-2" d="M48,54.23a2.14,2.14,0,0,1,.29-.41L59.54,42.55a1.78,1.78,0,0,1,1.28-.65,1.55,1.55,0,0,1,1.5.88,1.53,1.53,0,0,1-.19,1.73,3.15,3.15,0,0,1-.35.38L49.29,57.38a1.68,1.68,0,0,1-2.76,0L40.4,51.25A1.63,1.63,0,0,1,40,49.32a1.61,1.61,0,0,1,2.41-.64,3.6,3.6,0,0,1,.41.37l4.8,4.8.41.38"/></svg>