<svg id="Capa_1" data-name="Capa 1" xmlns="http://www.w3.org/2000/svg" viewBox="0 0 62.09 82.9"><defs><style>.cls-1{fill:#e7e7e7;}.cls-2{fill:#182b34;}.cls-3{fill:#477d9d;}.cls-4{fill:#b3b3b3;}.cls-5{fill:#9a211d;}.cls-6{fill:#e8c267;}.cls-7{fill:#4f8b2e;}.cls-8{fill:#f3f4f4;}.cls-9{fill:#d3d7d7;}.cls-10{fill:#efc391;}.cls-11{fill:#e4e0e0;}.cls-12{fill:#cfd1d7;}.cls-13{fill:#bebfc3;}.cls-14{fill:#e9a527;}.cls-15{fill:#e69623;}</style></defs><title>decoration2</title><path class="cls-1" d="M39.51,7.78s.2-3.62,2.87-3.62S45,7.78,45,7.78v20s.32,2.94,3,2.94H39.51Z" transform="translate(-8.14 -4.15)"/><path class="cls-2" d="M42.39,51.18c0,2.06-1.38,3.74-3.08,3.74H17.67c-1.7,0-3.08-1.68-3.08-3.74v-23c0-2.07,1.38-3.73,3.08-3.73H39.31c1.7,0,3.08,1.66,3.08,3.73Z" transform="translate(-8.14 -4.15)"/><path class="cls-2" d="M39.53,81.83a3.25,3.25,0,0,1-3.08,3.41H20.73a3.25,3.25,0,0,1-3.08-3.41l-.88-26.94a3.25,3.25,0,0,1,3.08-3.4l17.61,0a3.26,3.26,0,0,1,3.08,3.41Z" transform="translate(-8.14 -4.15)"/><path class="cls-3" d="M40.34,48.72a2.93,2.93,0,0,1-2.77,3.06H19.38a2.93,2.93,0,0,1-2.77-3.06V32.43a2.93,2.93,0,0,1,2.77-3.06H37.57a2.93,2.93,0,0,1,2.77,3.06Z" transform="translate(-8.14 -4.15)"/><path class="cls-4" d="M27.45,56.61a1.18,1.18,0,0,1-1.12,1.24H20.82a1.25,1.25,0,0,1,0-2.48h5.51a1.18,1.18,0,0,1,1.12,1.24" transform="translate(-8.14 -4.15)"/><path class="cls-4" d="M37.46,56.61a1.18,1.18,0,0,1-1.12,1.24H30.83a1.25,1.25,0,0,1,0-2.48h5.51a1.18,1.18,0,0,1,1.12,1.24" transform="translate(-8.14 -4.15)"/><path class="cls-4" d="M25.27,62.16a1,1,0,0,1-.92,1H21.7a1,1,0,0,1-.93-1v-.9a1,1,0,0,1,.93-1h2.65a1,1,0,0,1,.92,1Z" transform="translate(-8.14 -4.15)"/><path class="cls-4" d="M30.85,62.16a1,1,0,0,1-.92,1H27.27a1,1,0,0,1-.92-1v-.9a1,1,0,0,1,.92-1h2.66a1,1,0,0,1,.92,1Z" transform="translate(-8.14 -4.15)"/><path class="cls-4" d="M36.65,62.16a1,1,0,0,1-.92,1H33.08a1,1,0,0,1-.93-1v-.9a1,1,0,0,1,.93-1h2.65a1,1,0,0,1,.92,1Z" transform="translate(-8.14 -4.15)"/><path class="cls-4" d="M25.27,67.51a1,1,0,0,1-.92,1H21.7a1,1,0,0,1-.93-1v-.9a1,1,0,0,1,.93-1h2.65a1,1,0,0,1,.92,1Z" transform="translate(-8.14 -4.15)"/><path class="cls-4" d="M30.85,67.51a1,1,0,0,1-.92,1H27.27a1,1,0,0,1-.92-1v-.9a1,1,0,0,1,.92-1h2.66a1,1,0,0,1,.92,1Z" transform="translate(-8.14 -4.15)"/><path class="cls-4" d="M36.65,67.51a1,1,0,0,1-.92,1H33.08a1,1,0,0,1-.93-1v-.9a1,1,0,0,1,.93-1h2.65a1,1,0,0,1,.92,1Z" transform="translate(-8.14 -4.15)"/><path class="cls-4" d="M25.16,72.93a1,1,0,0,1-.92,1H21.58a1,1,0,0,1-.92-1V72a1,1,0,0,1,.92-1h2.66a1,1,0,0,1,.92,1Z" transform="translate(-8.14 -4.15)"/><path class="cls-4" d="M30.74,72.93a1,1,0,0,1-.92,1H27.16a1,1,0,0,1-.92-1V72a1,1,0,0,1,.92-1h2.66a1,1,0,0,1,.92,1Z" transform="translate(-8.14 -4.15)"/><path class="cls-4" d="M36.54,72.93a1,1,0,0,1-.92,1H33a1,1,0,0,1-.92-1V72A1,1,0,0,1,33,71h2.66a1,1,0,0,1,.92,1Z" transform="translate(-8.14 -4.15)"/><path class="cls-5" d="M24.93,81.1a.93.93,0,0,1-.88,1H21.1a.94.94,0,0,1-.89-1V77.84a.94.94,0,0,1,.89-1h2.95a.93.93,0,0,1,.88,1Z" transform="translate(-8.14 -4.15)"/><path class="cls-6" d="M31.07,81.1a.93.93,0,0,1-.88,1h-3a.94.94,0,0,1-.89-1V77.84a.94.94,0,0,1,.89-1h3a.93.93,0,0,1,.88,1Z" transform="translate(-8.14 -4.15)"/><path class="cls-7" d="M37.1,81.1a.93.93,0,0,1-.88,1H33.27a.94.94,0,0,1-.89-1V77.84a.94.94,0,0,1,.89-1h2.95a.93.93,0,0,1,.88,1Z" transform="translate(-8.14 -4.15)"/><rect class="cls-8" x="9.51" y="3.63" width="21.88" height="19.1"/><path class="cls-8" d="M19.69,4.15c-2.21.25-2.05,3.62-2.05,3.62H39.53c.22-3.47,2.83-3.63,2.83-3.63Z" transform="translate(-8.14 -4.15)"/><path class="cls-9" d="M47.94,30.68s2.12.11,2.18-3v-5.5H45v5.57s.2,3.16,3,2.93" transform="translate(-8.14 -4.15)"/><rect class="cls-9" x="10.43" y="19.65" width="13.45" height="0.47"/><rect class="cls-9" x="10.43" y="12.94" width="19.93" height="0.47"/><rect class="cls-9" x="10.36" y="10.55" width="19.93" height="0.47"/><rect class="cls-9" x="10.36" y="8.21" width="19.93" height="0.47"/><rect class="cls-9" x="10.36" y="5.6" width="19.93" height="0.47"/><rect class="cls-9" x="10.43" y="15.65" width="13.45" height="0.47"/><rect class="cls-9" x="10.43" y="3.16" width="13.45" height="0.47"/><rect class="cls-9" x="10.43" y="17.74" width="13.45" height="0.47"/><path class="cls-10" d="M15.61,77.21a2.11,2.11,0,0,1-1.91-2.28h0a2.09,2.09,0,0,1,2.06-2.12l3.85.16a2.12,2.12,0,0,1,1.92,2.28h0a2.08,2.08,0,0,1-2.06,2.12Z" transform="translate(-8.14 -4.15)"/><path class="cls-10" d="M14.64,71.6a2.32,2.32,0,0,1-2.1-2.49h0a2.28,2.28,0,0,1,2.26-2.32L19,67a2.33,2.33,0,0,1,2.1,2.5h0a2.29,2.29,0,0,1-2.26,2.32Z" transform="translate(-8.14 -4.15)"/><path class="cls-10" d="M14.42,65.71a2.38,2.38,0,0,1-2.25-2.5h0a2.34,2.34,0,0,1,2.41-2.31l4.52.18a2.4,2.4,0,0,1,2.26,2.5h0A2.34,2.34,0,0,1,19,65.89Z" transform="translate(-8.14 -4.15)"/><path class="cls-10" d="M14.65,59.28a2.33,2.33,0,0,1-2.1-2.5h0a2.28,2.28,0,0,1,2.25-2.32l4.22.17a2.32,2.32,0,0,1,2.1,2.49h0a2.28,2.28,0,0,1-2.26,2.32Z" transform="translate(-8.14 -4.15)"/><path class="cls-10" d="M51.2,68.06h0S49.59,67.5,49,64.92s-3.74-4.72-4.67-6.08a12.11,12.11,0,0,0-3.49-2.71l-10.35-3S29,55.62,31,57.26s2.94,1,2.94,1L38,59.54s-2.48,6.27,1.73,10.73L39.6,82.15l11.72,1Z" transform="translate(-8.14 -4.15)"/><path class="cls-11" d="M16.18,22.77h0l-.28-1.35h0c-2.47.28-4,2.75-3.44,5.51l1.2-.14a3.17,3.17,0,0,1,2.52-4" transform="translate(-8.14 -4.15)"/><path class="cls-11" d="M15.58,20.53l.14,0-.28-1.35-.14,0c-3.59.4-5.83,4-5,8L11.51,27c-.67-3.26,1.15-6.18,4.07-6.51" transform="translate(-8.14 -4.15)"/><path class="cls-11" d="M15.15,18.33h.12L15,17h-.12c-4.67.53-7.58,5.2-6.5,10.41l1.2-.13c-.92-4.47,1.58-8.47,5.58-8.93" transform="translate(-8.14 -4.15)"/><path class="cls-12" d="M50.12,66.2c0-1,.05-1.93,1-1.9l5.14,0a2.12,2.12,0,0,1,2.3,1.87l0,8.72-8.45.06Z" transform="translate(-8.14 -4.15)"/><path class="cls-13" d="M50.16,84V74.88l8.45-.06L58.68,84a2.09,2.09,0,0,1-2.27,1.86H51.23c-1.06,0-1.06-.77-1.07-1.8" transform="translate(-8.14 -4.15)"/><path class="cls-14" d="M55.66,64.7c0-1-.42-2.29.85-2.3l13.72-.07V75l-14.51-.14Z" transform="translate(-8.14 -4.15)"/><path class="cls-15" d="M55.78,85.06l-.06-10.22H70.23V87H56.85c-1.27,0-1.06-.94-1.07-2" transform="translate(-8.14 -4.15)"/><path class="cls-2" d="M58.71,82.5a1.82,1.82,0,1,1-1.64,1.81,1.73,1.73,0,0,1,1.64-1.81" transform="translate(-8.14 -4.15)"/><path class="cls-2" d="M62.65,82.5A1.82,1.82,0,1,1,61,84.31a1.73,1.73,0,0,1,1.64-1.81" transform="translate(-8.14 -4.15)"/><path class="cls-2" d="M66.42,82.5a1.82,1.82,0,1,1-1.64,1.81,1.73,1.73,0,0,1,1.64-1.81" transform="translate(-8.14 -4.15)"/><polygon class="cls-8" points="12.21 36.01 12.21 36.43 11.58 36.43 11.58 38.28 11.21 38.28 11.21 36.43 10.58 36.43 10.58 36.01 12.21 36.01"/><path class="cls-8" d="M21.76,41.44l.47,1H21.8l-.45-.94H21v.94h-.38V40.16h.82a.58.58,0,0,1,.66.65.6.6,0,0,1-.35.63M21,41.06h.52a.21.21,0,0,0,.23-.24.22.22,0,0,0-.22-.24H21Z" transform="translate(-8.14 -4.15)"/><path class="cls-8" d="M22.33,42.42l.75-2.26h.37l.76,2.26h-.4l-.12-.34h-.85l-.11.34Zm1-1.66-.29.86h.56Z" transform="translate(-8.14 -4.15)"/><polygon class="cls-8" points="16.35 38.28 16.35 36.01 16.47 36.01 17.65 37.43 17.65 36.01 18.02 36.01 18.02 38.28 17.89 38.28 16.72 36.87 16.72 38.28 16.35 38.28"/><path class="cls-8" d="M27.57,40.23a.83.83,0,0,1,.27.23l-.25.3a.4.4,0,0,0-.35-.18c-.15,0-.25,0-.29.13a.21.21,0,0,0,0,.22.46.46,0,0,0,.29.13,1,1,0,0,1,.43.19.63.63,0,0,1,.2.51.62.62,0,0,1-.21.47.69.69,0,0,1-.48.2,1,1,0,0,1-.44-.1.89.89,0,0,1-.3-.24l.25-.3a.54.54,0,0,0,.43.21c.16,0,.27,0,.31-.13a.28.28,0,0,0,0-.25c0-.09-.15-.14-.31-.16a1,1,0,0,1-.42-.17.56.56,0,0,1-.19-.47.61.61,0,0,1,.22-.48.68.68,0,0,1,.44-.18.87.87,0,0,1,.4.07" transform="translate(-8.14 -4.15)"/><path class="cls-8" d="M28.1,42.42l.76-2.26h.37L30,42.42h-.4l-.11-.34h-.85l-.11.34Zm.95-1.66-.28.86h.56Z" transform="translate(-8.14 -4.15)"/><path class="cls-8" d="M30.39,42.1a1.35,1.35,0,0,1,0-1.62.85.85,0,0,1,.67-.32.92.92,0,0,1,.69.3l-.25.33a.62.62,0,0,0-.44-.18.49.49,0,0,0-.41.19.76.76,0,0,0-.15.48.81.81,0,0,0,.15.51.52.52,0,0,0,.41.18.6.6,0,0,0,.44-.18l.25.33a.92.92,0,0,1-.69.3.82.82,0,0,1-.67-.32" transform="translate(-8.14 -4.15)"/><polygon class="cls-8" points="25.55 36.01 25.55 36.43 24.92 36.43 24.92 38.28 24.55 38.28 24.55 36.43 23.92 36.43 23.92 36.01 25.55 36.01"/><rect class="cls-8" x="25.83" y="36.01" width="0.37" height="2.27"/><path class="cls-8" d="M34.9,42.1a1.35,1.35,0,0,1,0-1.62.83.83,0,0,1,.67-.32.86.86,0,0,1,.67.32,1.35,1.35,0,0,1,0,1.62.83.83,0,0,1-.67.32.81.81,0,0,1-.67-.32m.67-.1a.49.49,0,0,0,.4-.2.8.8,0,0,0,.16-.51.75.75,0,0,0-.16-.5.48.48,0,0,0-.41-.21.48.48,0,0,0-.4.21.75.75,0,0,0-.16.5.8.8,0,0,0,.16.51.5.5,0,0,0,.41.2" transform="translate(-8.14 -4.15)"/><polygon class="cls-8" points="28.64 38.28 28.64 36.01 28.77 36.01 29.95 37.43 29.95 36.01 30.32 36.01 30.32 38.28 30.19 38.28 29.02 36.87 29.02 38.28 28.64 38.28"/></svg>