<svg id="Capa_1" data-name="Capa 1" xmlns="http://www.w3.org/2000/svg" viewBox="0 0 80 81.74"><defs><style>.cls-1{fill:#ffcb00;}.cls-2{fill:#232f3e;}</style></defs><title>duda</title><path class="cls-1" d="M43.47.13c1.43.2,2.86.36,4.28.61a39.23,39.23,0,0,1,20.46,10.1A38.58,38.58,0,0,1,80.54,34.2c1.89,13.43-2.05,25.06-11.64,34.66A38.43,38.43,0,0,1,47.08,79.77,38.92,38.92,0,0,1,23.2,76.06a1.62,1.62,0,0,0-1.9.11c-2.58,1.78-5.22,3.48-7.83,5.22a1.74,1.74,0,0,1-2.05.24,1.57,1.57,0,0,1-.7-1.71c.28-2.12.58-4.23.87-6.34.23-1.62.49-3.23.67-4.85a1.43,1.43,0,0,0-.34-1A39.29,39.29,0,0,1,1.46,46.15a39,39,0,0,1,7.62-30A39.32,39.32,0,0,1,34.66.64C36,.42,37.26.3,38.56.13Z" transform="translate(-1 -0.13)"/><path class="cls-2" d="M37.65,46V38.22A2,2,0,0,1,39.3,36a5.43,5.43,0,0,1,4,.23,1.94,1.94,0,0,1,1.2,1.89q0,8.06,0,16.1A2,2,0,0,1,43.32,56a4.7,4.7,0,0,1-4.43.09,2,2,0,0,1-1.25-2c0-2.69,0-5.39,0-8.08" transform="translate(-1 -0.13)"/><path class="cls-2" d="M40.85,31.61a4.65,4.65,0,0,1-.7-.08,3.29,3.29,0,0,1-2.71-3.26,3.35,3.35,0,0,1,3.21-2.87,3.5,3.5,0,0,1,3.86,2.46c.43,1.95-1.29,3.77-3.66,3.75" transform="translate(-1 -0.13)"/></svg>