<svg id="Capa_1" data-name="Capa 1" xmlns="http://www.w3.org/2000/svg" viewBox="0 0 60 60"><defs><style>.cls-1{fill:#fff;}.cls-2{fill:#232f3e;}</style></defs><title>gorro</title><path class="cls-1" d="M29.36,10.49,7.25,20.2a1.93,1.93,0,0,0-1,1.06L2.67,30a2.29,2.29,0,0,0,.55,2.53l4.95,4.52H50.68l5.8-5.41a1.49,1.49,0,0,0,.34-1.63l-3.61-8.8a2,2,0,0,0-1-1.06L31,10.5a2,2,0,0,0-1.61,0"/><path class="cls-2" d="M57.5,31.56a7.53,7.53,0,0,1-.73.86c-1.84,1.7-3.68,3.39-5.54,5.07a1.16,1.16,0,0,0-.46,1c0,.62,0,1.24,0,1.86A5.34,5.34,0,0,1,49,44.51a14.92,14.92,0,0,1-6.15,3.4A41.37,41.37,0,0,1,26,49.42a32.29,32.29,0,0,1-8.79-2,12.22,12.22,0,0,1-5.46-3.7,4.85,4.85,0,0,1-1.09-3c0-.78,0-1.56,0-2.33a1.13,1.13,0,0,0-.33-.74c-1.89-1.77-3.81-3.51-5.72-5.26-.75-.69-.8-1-.38-1.91,1.36-3.07,2.73-6.14,4.07-9.22a2,2,0,0,1,1.1-1.09q10.26-4.49,20.51-9a1.89,1.89,0,0,1,1.67,0q10.27,4.53,20.55,9a1.9,1.9,0,0,1,1.06,1.06c1.44,3.28,2.9,6.56,4.35,9.84Zm-5.87-8.37c-.2.19-.34.31-.47.45l-5.68,5.67a3,3,0,0,1-.55.46,1,1,0,0,1-1.25-.13,1,1,0,0,1-.23-1.28,2.64,2.64,0,0,1,.45-.56q2.68-2.7,5.39-5.38c.24-.25.52-.45.82-.72-.25-.13-.38-.2-.53-.26L31.12,13.32a1,1,0,0,0-.88,0l-13.53,6-5.5,2.42a3.78,3.78,0,0,1,.57.37l5.68,5.68a2.33,2.33,0,0,1,.43.51,1,1,0,0,1,0,1.2,1,1,0,0,1-1.14.39,1.93,1.93,0,0,1-.72-.49l-5.75-5.74c-.13-.14-.27-.26-.42-.4a1.74,1.74,0,0,0-.11.15c-1.08,2.44-2.16,4.89-3.25,7.32-.12.28,0,.4.16.57,1.74,1.58,3.46,3.18,5.21,4.75a1.26,1.26,0,0,0,.77.29q18.11,0,36.21,0a1.32,1.32,0,0,0,.81-.32c1.6-1.43,3.17-2.89,4.75-4.33.72-.66.72-.67.32-1.56l-3.06-6.92M48.28,41.85H13.19l-.1.14a18.87,18.87,0,0,0,1.56,1.54,15.65,15.65,0,0,0,5.74,2.64,40.62,40.62,0,0,0,19.11.39A19.32,19.32,0,0,0,46.12,44a5.79,5.79,0,0,0,2.16-2.15m.29-3.31H12.86V39.6H48.57Z"/><path class="cls-2" d="M18.42,31.35a1.09,1.09,0,0,1,1.07-1.09,1.14,1.14,0,0,1,1.1,1.09,1.11,1.11,0,0,1-1.09,1.08,1.08,1.08,0,0,1-1.08-1.08"/><path class="cls-2" d="M41.82,32.42a1.06,1.06,0,0,1-1-1.15,1.08,1.08,0,1,1,1,1.15"/></svg>