<svg id="Capa_1" data-name="Capa 1" xmlns="http://www.w3.org/2000/svg" viewBox="0 0 60 60"><defs><style>.cls-1{fill:#fff;}.cls-2{fill:none;stroke:#232f3e;stroke-miterlimit:10;stroke-width:4.14px;}</style></defs><title>img-check</title><path class="cls-1" d="M24.16,39a7.16,7.16,0,0,1,.65-.95Q37.74,25.12,50.68,12.17a4.21,4.21,0,0,1,3-1.5,3.54,3.54,0,0,1,3.44,2,3.48,3.48,0,0,1-.43,4,8.45,8.45,0,0,1-.81.88L27.15,46.24c-2.22,2.22-4.13,2.21-6.36,0q-7-7-14.07-14.08a3.72,3.72,0,0,1,4.52-5.9,9.68,9.68,0,0,1,1,.86l11,11c.23.24.48.46.94.89"/><path class="cls-2" d="M21.31,40.44a5.85,5.85,0,0,1,.65-.95L47.83,13.6a4.17,4.17,0,0,1,3-1.5,3.55,3.55,0,0,1,3.44,2,3.52,3.52,0,0,1-.43,4A11.1,11.1,0,0,1,53,19L24.29,47.67c-2.21,2.21-4.13,2.21-6.35,0q-7-7-14.08-14.08a3.74,3.74,0,0,1-1-4.44,3.69,3.69,0,0,1,5.52-1.46,7.86,7.86,0,0,1,1,.86l11,11C20.6,39.79,20.85,40,21.31,40.44Z"/></svg>