<svg id="Capa_1" data-name="Capa 1" xmlns="http://www.w3.org/2000/svg" viewBox="0 0 60 60"><defs><style>.cls-1{fill:#fff;}.cls-2{fill:#232f3e;}</style></defs><title>locate</title><path class="cls-1" d="M47.3,25A14.24,14.24,0,1,1,33,10.79,14.31,14.31,0,0,1,47.3,25"/><path class="cls-2" d="M31.53,1c1,.14,1.92.26,2.87.44a22.68,22.68,0,0,1,11,5.44,22.83,22.83,0,0,1,7.31,12.39A23.29,23.29,0,0,1,51.1,34.09,58.2,58.2,0,0,1,38.68,51.73c-2.32,2.32-4.85,4.44-7.31,6.62-1,.89-1.68.85-2.73,0A77.11,77.11,0,0,1,14.43,43.63,43.83,43.83,0,0,1,7.84,31.15a22.24,22.24,0,0,1,1.23-16.9,22.88,22.88,0,0,1,15-12.46A36.31,36.31,0,0,1,28,1.1L28.5,1ZM29.92,55.26a2.24,2.24,0,0,0,.26-.17c.81-.7,1.63-1.38,2.42-2.09A62,62,0,0,0,47,35.14a24.64,24.64,0,0,0,2.8-8,19.31,19.31,0,0,0-4.39-15.54A19.39,19.39,0,0,0,27.24,4.49,18.85,18.85,0,0,0,18.39,8a19.88,19.88,0,0,0-7.73,21,32.67,32.67,0,0,0,3.7,8.43A59.57,59.57,0,0,0,24.48,50.25c1.76,1.71,3.62,3.34,5.44,5"/><path class="cls-2" d="M44.77,24.48A14.76,14.76,0,1,1,30,9.75,14.82,14.82,0,0,1,44.77,24.48m-3.28,0A11.48,11.48,0,1,0,30.06,36a11.54,11.54,0,0,0,11.43-11.5"/></svg>