<svg id="Capa_1" data-name="Capa 1" xmlns="http://www.w3.org/2000/svg" viewBox="0 0 60 60"><defs><style>.cls-1{fill:#fff;}.cls-2{fill:#232f3e;}.cls-3{fill:none;stroke:#232f3e;stroke-miterlimit:10;stroke-width:2.14px;}</style></defs><title>pay</title><path class="cls-1" d="M50.41,56.87H8.34V28.46H50.41a2.89,2.89,0,0,1,2.89,2.89V54a2.89,2.89,0,0,1-2.89,2.89"/><path class="cls-2" d="M7.75,58.26a7.75,7.75,0,0,1-1.12-.55,2.93,2.93,0,0,1-1.16-2.62V25.4a2.85,2.85,0,0,1,3.14-3.11c3.81,0,7.62,0,11.42,0a.78.78,0,0,0,.8-.48c3.21-6,6.45-12,9.67-18a3.59,3.59,0,0,1,3.43-2.09,4,4,0,0,1,1.71.49q8.45,4.53,16.86,9.11A3.58,3.58,0,0,1,54,16.47c-1.84,3.43-3.7,6.85-5.55,10.28l-.29.57.31.13a2.81,2.81,0,0,1,1.83,2.72c0,2.41,0,4.81,0,7.22v.66c.36,0,.69,0,1,0a1.14,1.14,0,0,1,1.25,1.26q0,3.88,0,7.77c0,.86-.41,1.24-1.29,1.27-.31,0-.61,0-1,0V49c0,1.86-.07,3.72,0,5.57s-.45,3.06-2.21,3.67ZM48,38.05V30.69c0-1.15-.07-1.22-1.2-1.22H8.53c-.75,0-.92.14-.92.82q0,12.47,0,24.93c0,.66.19.84.85.84H47.18c.69,0,.88-.18.88-.87,0-2.14,0-4.27,0-6.4,0-.13,0-.25-.05-.43h-.66c-1.26,0-2.52,0-3.77,0a3.16,3.16,0,0,1-3-3.16,37,37,0,0,1,0-3.94,4.17,4.17,0,0,1,.66-1.85,3.17,3.17,0,0,1,2.85-1.32H48M42.33,8.38,32.11,27.25l.26,0c4.28,0,8.56,0,12.85,0,.35,0,.47-.17.6-.43Q48.91,21.15,52,15.43a3.12,3.12,0,0,0,.23-.49,1.18,1.18,0,0,0-.57-1.49L42.33,8.38M20.38,27.29c1.1,0,2.11,0,3.12,0a.84.84,0,0,0,.89-.52Q30.1,16.13,35.84,5.48c.09-.16.16-.32.26-.52l-1.3-.73a1.46,1.46,0,0,0-2.36.7L20.68,26.68c-.09.17-.17.35-.3.61m6.18,0c.91,0,1.69,0,2.47,0a.83.83,0,0,0,.89-.52q5.09-9.5,10.22-19c.08-.15.15-.31.26-.52L38.09,6.06c-3.84,7.07-7.65,14.1-11.53,21.23m23.72,13c-2.17,0-4.28,0-6.39,0-.77,0-1.13.45-1.14,1.24,0,1.07,0,2.14,0,3.22s.36,1.48,1.47,1.48h6.07ZM19.34,24.47H8.41c-.38,0-.75.1-.78.52,0,.74,0,1.48,0,2.21h9.74c.19,0,.48-.06.56-.19.48-.79.91-1.61,1.42-2.54"/><path class="cls-3" d="M48.73,16.37a2.22,2.22,0,1,1-2.22-2.21A2.22,2.22,0,0,1,48.73,16.37Z"/></svg>