<svg id="Capa_1" data-name="Capa 1" xmlns="http://www.w3.org/2000/svg" viewBox="0 0 60 60"><defs><style>.cls-1{fill:#fff;}.cls-2{fill:#232f3e;}.cls-3,.cls-4{fill:none;stroke:#232f3e;stroke-miterlimit:10;}.cls-3{stroke-width:2.12px;}.cls-4{stroke-width:1.06px;}</style></defs><title>pc</title><path class="cls-1" d="M52.62,38.74H14.14a1.58,1.58,0,0,1-1.58-1.58V12.58A1.58,1.58,0,0,1,14.14,11H52.62a1.58,1.58,0,0,1,1.58,1.58V37.16a1.58,1.58,0,0,1-1.58,1.58"/><path class="cls-2" d="M1.88,43.68c.32-.35.6-.73.94-1C4.4,41.22,6,39.81,7.58,38.42A1.06,1.06,0,0,0,8,37.54Q8,25.93,8,14.33c0-1.37.37-1.74,1.74-1.74H50.31a4.11,4.11,0,0,1,.86.08,1.06,1.06,0,0,1,.84.95,4.78,4.78,0,0,1,0,.76q0,11.55,0,23.1a1.17,1.17,0,0,0,.44,1c1.63,1.43,3.24,2.9,4.87,4.33a2,2,0,0,1,.77,1.7,5,5,0,0,1-.57,2.78A3.73,3.73,0,0,1,54.23,49H5.8a3.59,3.59,0,0,1-3.57-2.08c-.14-.3-.23-.64-.35-1Zm8.53-6.33h39.2V15.05H10.41Zm19.47,9.22h24a5.51,5.51,0,0,0,.81-.05,1,1,0,0,0,.88-.84c.1-.5.24-1-.27-1.44-1.49-1.29-3-2.61-4.42-3.94a1.63,1.63,0,0,0-1.2-.47q-13.5,0-27,0H10.14a1.24,1.24,0,0,0-.74.21c-1.63,1.41-3.24,2.85-4.84,4.3a.85.85,0,0,0-.25.55c0,1,.16,1.69,1.6,1.68,8,0,16,0,24,0"/><path class="cls-3" d="M50.91,38.74V15.11A1.51,1.51,0,0,0,49.4,13.6H10.17a1.5,1.5,0,0,0-1.51,1.51V38.74L3.33,44a2.5,2.5,0,0,0,1.76,4.28H54.8A2.5,2.5,0,0,0,56.51,44Z"/><line class="cls-3" x1="8.66" y1="38.74" x2="50.91" y2="38.74"/><path class="cls-2" d="M32.29,29.22A1.71,1.71,0,0,0,31.76,28,4.79,4.79,0,0,0,30,27a5.65,5.65,0,0,1-2.55-1.4,3.06,3.06,0,0,1-.81-2.19,3.12,3.12,0,0,1,.79-2.21,3.31,3.31,0,0,1,2.16-1V19a.62.62,0,1,1,1.23,0v1.2a3.13,3.13,0,0,1,2.15,1.16,3.61,3.61,0,0,1,.72,1.81.76.76,0,0,1-1.51.19,2.57,2.57,0,0,0-.5-1.19,1.82,1.82,0,0,0-1.49-.69,2.07,2.07,0,0,0-1.51.51,1.91,1.91,0,0,0-.51,1.41,1.76,1.76,0,0,0,.54,1.35,5.12,5.12,0,0,0,1.81.9,8.06,8.06,0,0,1,2,.9,3.28,3.28,0,0,1,1,1.14,3.38,3.38,0,0,1,.33,1.53A3.08,3.08,0,0,1,33,31.45a3.72,3.72,0,0,1-2.35,1v1a.61.61,0,0,1-1.22,0v-1A3.51,3.51,0,0,1,27,31.36a3.22,3.22,0,0,1-.79-1.67.76.76,0,1,1,1.5-.26,2.09,2.09,0,0,0,.55,1.11,2.27,2.27,0,0,0,1.7.62,2.54,2.54,0,0,0,1.7-.52,1.76,1.76,0,0,0,.62-1.42"/><path class="cls-4" d="M32.29,29.22A1.71,1.71,0,0,0,31.76,28,4.79,4.79,0,0,0,30,27a5.65,5.65,0,0,1-2.55-1.4,3.06,3.06,0,0,1-.81-2.19,3.12,3.12,0,0,1,.79-2.21,3.31,3.31,0,0,1,2.16-1V19a.62.62,0,1,1,1.23,0v1.2a3.13,3.13,0,0,1,2.15,1.16,3.61,3.61,0,0,1,.72,1.81.76.76,0,0,1-1.51.19,2.57,2.57,0,0,0-.5-1.19,1.82,1.82,0,0,0-1.49-.69,2.07,2.07,0,0,0-1.51.51,1.91,1.91,0,0,0-.51,1.41,1.76,1.76,0,0,0,.54,1.35,5.12,5.12,0,0,0,1.81.9,8.06,8.06,0,0,1,2,.9,3.28,3.28,0,0,1,1,1.14,3.38,3.38,0,0,1,.33,1.53A3.08,3.08,0,0,1,33,31.45a3.72,3.72,0,0,1-2.35,1v1a.61.61,0,0,1-1.22,0v-1A3.51,3.51,0,0,1,27,31.36a3.22,3.22,0,0,1-.79-1.67.76.76,0,1,1,1.5-.26,2.09,2.09,0,0,0,.55,1.11,2.27,2.27,0,0,0,1.7.62,2.54,2.54,0,0,0,1.7-.52A1.76,1.76,0,0,0,32.29,29.22Z"/></svg>