<svg id="Capa_1" data-name="Capa 1" xmlns="http://www.w3.org/2000/svg" viewBox="0 0 100 100"><defs><style>.cls-1{fill:#fff;}.cls-2{fill:#232f3e;}</style></defs><title>si</title><path class="cls-1" d="M68.44,48.69h7.4A7.36,7.36,0,0,1,83,56.21V67a7.36,7.36,0,0,1-7.18,7.53H68.15s5.29-20.29.29-25.85"/><path class="cls-2" d="M44,15.19c1.51.42,2.9,1.09,3.5,2.64a15.3,15.3,0,0,1,.77,3.24,7.42,7.42,0,0,1,0,1.94,15.3,15.3,0,0,0,2.63,10.67c2,2.88,4.22,5.63,6.38,8.4.66.85,1.45,1.59,2.16,2.4a6,6,0,0,0,3.82,1.92,22.23,22.23,0,0,0,2.59.16,49,49,0,0,1,5.69.29,8.49,8.49,0,0,1,7.59,7.8,39.85,39.85,0,0,1-.51,14.44,10.87,10.87,0,0,1-2.19,4.42,6.36,6.36,0,0,1-4.74,2.36c-2.21.11-4.44-.08-6.65,0a33.31,33.31,0,0,0-4.66.57,3.62,3.62,0,0,0-1.31.77c-1.72,1.32-3.41,2.68-5.16,4a14.4,14.4,0,0,1-7,2.46c-3,.38-6.09.76-9.14,1.06a10.25,10.25,0,0,1-4.85-.44,6.56,6.56,0,0,1-4.51-5.73,1.08,1.08,0,0,0-.5-.69,8.07,8.07,0,0,1-4.37-6.52.94.94,0,0,1,0-.4c.28-1-.23-1.44-.9-2a8.26,8.26,0,0,1-2.9-7.7.84.84,0,0,0-.19-.68,7.43,7.43,0,0,1-2.29-7.16C17.67,49.87,20,47.9,23.19,47c1.89-.53,3.85-.8,5.77-1.24a35.83,35.83,0,0,0,3.81-1.06c3.18-1.14,3.48-2.84,3-5.37a36.39,36.39,0,0,0-1.63-5.46,15.74,15.74,0,0,1,.5-12.16,11.29,11.29,0,0,1,5.71-5.91,16.17,16.17,0,0,1,2-.59Zm-.14,8.59c0-.43.08-.85.08-1.28a17.17,17.17,0,0,0-.08-2.27c-.1-.78-.54-1-1.3-.8a3.76,3.76,0,0,0-.91.42A7.69,7.69,0,0,0,39,22.74a10.91,10.91,0,0,0-1.07,8.38c.61,2.13,1.34,4.23,1.93,6.36a9.69,9.69,0,0,1,.13,5.57,8.42,8.42,0,0,1-5.66,5.68,52.41,52.41,0,0,1-6,1.32A14.3,14.3,0,0,0,22.8,52a3.19,3.19,0,0,0-1.57,3,2.57,2.57,0,0,0,2.09,2.46,1.82,1.82,0,0,1,1.39,2A3.9,3.9,0,0,1,24.28,61,3.79,3.79,0,0,0,24,63.71a4.12,4.12,0,0,0,3,3,2,2,0,0,1,1.23,2.91A3.07,3.07,0,0,0,28,72a2.54,2.54,0,0,0,2.64,2.23c1.83.14,2.6,1.24,2.17,3a3.55,3.55,0,0,0-.09,1.26A1.6,1.6,0,0,0,34,80a10.4,10.4,0,0,0,2.2.3,60.64,60.64,0,0,0,10.74-1.16c1.77-.34,3.58-.61,5-1.84s2.9-2.25,4.31-3.43a7.72,7.72,0,0,1,4.88-2c3.16-.09,4.68-1.45,5.31-4.54a39.08,39.08,0,0,0,.43-9.72,27.82,27.82,0,0,0-.44-3.39,3.79,3.79,0,0,0-3.49-3.42A14.44,14.44,0,0,1,59.66,50a11.9,11.9,0,0,1-4.26-3.4,94.33,94.33,0,0,1-8.39-11,17.81,17.81,0,0,1-3.19-11.76M70,51a36.56,36.56,0,0,1-.23,20.65l1.56-.07a2.21,2.21,0,0,0,2.09-1.33,18,18,0,0,0,1.24-3.39,38.86,38.86,0,0,0,.28-11.19A4.75,4.75,0,0,0,70,51"/></svg>