<svg id="Capa_1" data-name="Capa 1" xmlns="http://www.w3.org/2000/svg" viewBox="0 0 100 100"><defs><style>.cls-1{fill:#fff;}.cls-2{fill:none;stroke:#232f3e;stroke-miterlimit:10;stroke-width:3px;}.cls-3{fill:#f0c92f;}.cls-4{fill:#232f3e;}</style></defs><title>signo</title><path class="cls-1" d="M82.84,50A32.84,32.84,0,1,1,50,17.16,32.85,32.85,0,0,1,82.84,50"/><path class="cls-2" d="M82.84,50A32.84,32.84,0,1,1,50,17.16,32.85,32.85,0,0,1,82.84,50Z"/><path class="cls-3" d="M51.47,57.94c0,3.17,0,6.33,0,9.5a2.55,2.55,0,0,1-3,2.58,2.52,2.52,0,0,1-2.57-2.08c0-.15,0-.29,0-.44q0-9.57,0-19.14c0-1.66,1.38-2.71,3.2-2.49a2.5,2.5,0,0,1,2.27,1.85,7.85,7.85,0,0,1,.08,1.08v9.14"/><path class="cls-2" d="M52,57.25c0,2.83,0,5.66,0,8.49a2.05,2.05,0,0,1-2.19,2.31,2,2,0,0,1-1.91-1.86c0-.13,0-.26,0-.39,0-5.71,0-11.41,0-17.12a2,2,0,0,1,2.37-2.23,2,2,0,0,1,1.69,1.66,7.62,7.62,0,0,1,0,1C52,51.8,52,54.52,52,57.25Z"/><path class="cls-4" d="M53.44,37.38A3.43,3.43,0,0,1,50,40.77a3.44,3.44,0,1,1,.1-6.88,3.43,3.43,0,0,1,3.35,3.49"/></svg>