<svg id="Capa_1" data-name="Capa 1" xmlns="http://www.w3.org/2000/svg" viewBox="0 0 80 81.74"><defs><style>.cls-1{fill:#f0c92f;}.cls-2{fill:#232f3e;}</style></defs><title>Sin título-1</title><path class="cls-1" d="M43.47-5c1.43.2,2.86.36,4.28.61A39.23,39.23,0,0,1,68.21,5.71,38.58,38.58,0,0,1,80.54,29.07C82.43,42.5,78.49,54.14,68.9,63.73A38.43,38.43,0,0,1,47.08,74.64,38.92,38.92,0,0,1,23.2,70.93a1.61,1.61,0,0,0-1.9.12c-2.58,1.77-5.22,3.47-7.83,5.21a1.76,1.76,0,0,1-2.05.25,1.59,1.59,0,0,1-.7-1.72c.28-2.12.58-4.23.87-6.34.23-1.62.49-3.23.67-4.85a1.43,1.43,0,0,0-.34-1A39.29,39.29,0,0,1,1.46,41,39,39,0,0,1,9.08,11,39.36,39.36,0,0,1,34.66-4.49c1.3-.22,2.6-.34,3.9-.51Z" transform="translate(-1 5)"/><path class="cls-2" d="M37.65,40.87V33.09a2,2,0,0,1,1.65-2.27,5.43,5.43,0,0,1,4,.23,1.94,1.94,0,0,1,1.2,1.89q0,8.06,0,16.1a2,2,0,0,1-1.16,1.85,4.7,4.7,0,0,1-4.43.09,2,2,0,0,1-1.25-2c0-2.69,0-5.39,0-8.08" transform="translate(-1 5)"/><path class="cls-2" d="M40.85,26.49a7,7,0,0,1-.7-.09,3.29,3.29,0,0,1-2.71-3.26,3.35,3.35,0,0,1,3.21-2.87,3.51,3.51,0,0,1,3.86,2.46c.43,1.95-1.29,3.77-3.66,3.76" transform="translate(-1 5)"/></svg>