<svg id="Capa_1" data-name="Capa 1" xmlns="http://www.w3.org/2000/svg" viewBox="0 0 60 60"><defs><style>.cls-1{fill:#fff;}.cls-2{fill:#232f3e;}</style></defs><title>truck</title><path class="cls-1" d="M50.2,46.79A5,5,0,1,0,45.13,42a5,5,0,0,0,5.07,4.83"/><path class="cls-1" d="M22.91,46.79A5,5,0,1,0,17.83,42a5,5,0,0,0,5.08,4.83"/><path class="cls-2" d="M1,18.8a1.37,1.37,0,0,1,1.35-.69c2.43,0,4.86,0,7.29,0h.64c0-.92,0-1.75,0-2.59a2,2,0,0,1,2.31-2.32H40.8a2.05,2.05,0,0,1,2.31,2.32c0,1.7,0,3.4,0,5.1,0,.2,0,.4,0,.63h.67c2.23,0,4.45,0,6.68,0a1.46,1.46,0,0,1,1.48.84c1.13,2.05,2.31,4.06,3.46,6.09a.66.66,0,0,0,.7.41c.54,0,1.08,0,1.63,0,.87,0,1.24.37,1.24,1.22V40.12c0,.88-.35,1.22-1.23,1.23H55.23c-.71,2.57-2.35,4.14-5,4.2s-4.52-1.54-5.27-4.2H40.6c-3.83,0-7.66,0-11.49,0-.46,0-.67.1-.82.58A5.17,5.17,0,0,1,20,44.37a5.52,5.52,0,0,1-1.81-3H12.65A2.06,2.06,0,0,1,10.28,39c0-2.6,0-5.2,0-7.8v-.67H4.51a3.78,3.78,0,0,1-.67-.05.93.93,0,0,1-.14-1.79,2.2,2.2,0,0,1,.72-.1H9.64l.6,0V25.29c-.36,0-.68,0-1,0a1,1,0,0,1-1-1,1,1,0,0,1,1-.95c.32,0,.65,0,1,0V20.05H9.58c-2.41,0-4.82,0-7.24,0A1.33,1.33,0,0,1,1,19.36Zm11.22-.65h1.57c1,0,2,0,3,0a1,1,0,1,1,0,1.92c-.24,0-.48,0-.73,0H12.25v3.28H23.58q1.43,0,1.41,1c0,.65-.48,1-1.43,1H12.26v3.26c.2,0,.4,0,.6,0h5.5a3.54,3.54,0,0,1,.56,0,1,1,0,0,1,.92.95,1,1,0,0,1-.92,1,3.44,3.44,0,0,1-.56,0H12.28v8.84a3.57,3.57,0,0,0,.47,0c1.66,0,3.33,0,5,0a.54.54,0,0,0,.63-.44,5.19,5.19,0,0,1,5-3.81,5.25,5.25,0,0,1,5.06,3.87.62.62,0,0,0,.43.36c4.07,0,8.15,0,12.22-.08l.06,0V15.25H12.22ZM43.16,30.56v8.81h1.69A15,15,0,0,1,46,37.2,5.16,5.16,0,0,1,55.08,39c.1.32.24.45.58.43s.89,0,1.38,0V30.56Zm10.22-2c-.09-.19-.15-.34-.23-.48-.85-1.47-1.71-2.94-2.54-4.42a.75.75,0,0,0-.74-.45c-2.07,0-4.15,0-6.22,0-.41,0-.55.11-.55.53,0,1.59,0,3.17,0,4.82Zm0,11.74a3.29,3.29,0,1,0-3.21,3.35,3.29,3.29,0,0,0,3.21-3.35m-30.1-3.21a3.28,3.28,0,1,0,3.35,3.2,3.31,3.31,0,0,0-3.35-3.2"/></svg>