<svg id="Capa_1" data-name="Capa 1" xmlns="http://www.w3.org/2000/svg" viewBox="0 0 60 60"><defs><style>.cls-1{fill:#fff;}.cls-2{fill:#232f3e;}</style></defs><title>volante</title><path class="cls-1" d="M4.57,32.48V26.87h19.1v8.66L4.57,32.48"/><path class="cls-1" d="M54.76,24.61v4.07L38.2,30.91v-6.3Z"/><path class="cls-1" d="M33.23,38.23c-.45,5.55-.91,11.19-1.37,16.88h-3.6c-.46-5.68-.92-11.32-1.38-16.88Z"/><path class="cls-1" d="M39.7,29.31a9.23,9.23,0,1,1-9.23-9.22,9.23,9.23,0,0,1,9.23,9.22"/><path class="cls-2" d="M51.31,30A21.32,21.32,0,1,1,30,8.68,21.41,21.41,0,0,1,51.31,30M11.84,25.33l.26,0c3.55,0,7.09,0,10.63,0a.93.93,0,0,0,.63-.36,8.28,8.28,0,0,1,13.25,0,.85.85,0,0,0,.8.37H48.15a18.72,18.72,0,0,0-36.31,0M11.45,33A18.68,18.68,0,0,0,26.33,48.38c-.07-.91-.15-1.81-.22-2.71-.22-2.77-.44-5.54-.68-8.31a1.26,1.26,0,0,0-.35-.65c-.59-.63-1.21-1.24-1.83-1.84a1.15,1.15,0,0,0-.59-.34c-2.55-.37-5.09-.71-7.63-1.05L11.45,33M33.66,48.42A18.78,18.78,0,0,0,48.52,33l-.47,0c-3.56.48-7.12,1-10.68,1.45a1.3,1.3,0,0,0-.67.4c-.55.53-1,1.13-1.61,1.61a1.42,1.42,0,0,0-.57,1.11c-.16,2.1-.34,4.2-.51,6.3-.12,1.48-.23,3-.35,4.48M35.81,30A5.82,5.82,0,1,0,30,35.81,5.8,5.8,0,0,0,35.81,30m-24.53.45,10.51,1.41v-4H11.28Zm37.43-2.59H38.2v4l10.51-1.41ZM32,38.23H28q.42,5.21.86,10.53h2.25c.28-3.55.57-7.07.85-10.53"/><path class="cls-2" d="M2.5,28.35c.14-1,.24-2,.42-3a27,27,0,0,1,9.9-16.77,26.6,26.6,0,0,1,14.45-5.9,27.49,27.49,0,0,1,10,53.87c-1.67.45-3.41.6-5.12.89l-.46.09h-3.3l-1.09-.13a26.91,26.91,0,0,1-14.31-5.81,27,27,0,0,1-10-16.86c-.18-1-.28-2-.42-3ZM30,5A25,25,0,1,0,55,30,25,25,0,0,0,30,5"/></svg>