<svg id="Capa_1" data-name="Capa 1" xmlns="http://www.w3.org/2000/svg" viewBox="0 0 45.46 88.58"><defs><style>.cls-1{fill:none;stroke:#232f3e;stroke-miterlimit:10;stroke-width:3px;}.cls-2{fill:#fff;}</style></defs><title>women</title><path class="cls-1" d="M49.62,7.21a11.4,11.4,0,0,1,4.52,2.05,8.28,8.28,0,0,1,.49,12.6A8.77,8.77,0,0,1,45.88,24a8.41,8.41,0,0,1-6.15-6.23A8.59,8.59,0,0,1,46.65,7.37a5,5,0,0,0,.55-.16Z" transform="translate(-26.22 -5.71)"/><path class="cls-2" d="M71.68,66.17H58.41V92.79H45.05V66.19H31.7c.64-1.92,1.23-3.7,1.82-5.49q4.65-13.9,9.3-27.83c1.15-3.49,3.37-5.81,7-6.56a9,9,0,0,1,10.6,6.08c3.73,11.06,7.39,22.14,11.08,33.21,0,.16.08.32.15.57" transform="translate(-26.22 -5.71)"/><path class="cls-1" d="M68.42,67.16H55.11V92.79H41.71V67.18H28.32c.64-1.85,1.23-3.57,1.83-5.29q4.66-13.39,9.32-26.8a8.89,8.89,0,0,1,7.05-6.31,9.09,9.09,0,0,1,10.64,5.85c3.74,10.65,7.41,21.32,11.11,32C68.32,66.76,68.36,66.92,68.42,67.16Z" transform="translate(-26.22 -5.71)"/></svg>